<mxfile host="Electron" agent="Mozilla/5.0 (X11; Linux x86_64) AppleWebKit/537.36 (KHTML, like Gecko) draw.io/26.0.16 Chrome/132.0.6834.196 Electron/34.2.0 Safari/537.36" version="26.0.16">
  <diagram name="Page-1" id="Tnr6mHDjs5gQasmMn2uS">
    <mxGraphModel dx="1114" dy="790" grid="1" gridSize="10" guides="1" tooltips="1" connect="1" arrows="1" fold="1" page="1" pageScale="1" pageWidth="850" pageHeight="1100" math="0" shadow="0">
      <root>
        <mxCell id="0" />
        <mxCell id="1" parent="0" />
        <mxCell id="kFIQSs36ufZ1v8POqErL-6" style="edgeStyle=orthogonalEdgeStyle;rounded=0;orthogonalLoop=1;jettySize=auto;html=1;" edge="1" parent="1" source="kFIQSs36ufZ1v8POqErL-1" target="kFIQSs36ufZ1v8POqErL-7">
          <mxGeometry relative="1" as="geometry">
            <mxPoint x="170" y="520" as="targetPoint" />
          </mxGeometry>
        </mxCell>
        <mxCell id="kFIQSs36ufZ1v8POqErL-28" style="edgeStyle=orthogonalEdgeStyle;rounded=0;orthogonalLoop=1;jettySize=auto;html=1;entryX=0.25;entryY=1;entryDx=0;entryDy=0;" edge="1" parent="1" source="kFIQSs36ufZ1v8POqErL-1" target="kFIQSs36ufZ1v8POqErL-22">
          <mxGeometry relative="1" as="geometry" />
        </mxCell>
        <mxCell id="kFIQSs36ufZ1v8POqErL-1" value="&lt;b&gt;&lt;i&gt;&lt;font style=&quot;color: rgb(255, 0, 246);&quot;&gt;NodeSpeed cli&lt;/font&gt;&lt;/i&gt;&lt;/b&gt;" style="rounded=0;whiteSpace=wrap;html=1;" vertex="1" parent="1">
          <mxGeometry x="380" y="340" width="120" height="60" as="geometry" />
        </mxCell>
        <mxCell id="kFIQSs36ufZ1v8POqErL-25" style="edgeStyle=orthogonalEdgeStyle;rounded=0;orthogonalLoop=1;jettySize=auto;html=1;entryX=0;entryY=0.5;entryDx=0;entryDy=0;" edge="1" parent="1" source="kFIQSs36ufZ1v8POqErL-5" target="kFIQSs36ufZ1v8POqErL-24">
          <mxGeometry relative="1" as="geometry" />
        </mxCell>
        <mxCell id="kFIQSs36ufZ1v8POqErL-5" value="&lt;b&gt;&lt;i&gt;&lt;font style=&quot;color: rgb(255, 0, 246);&quot;&gt;website&lt;/font&gt;&lt;/i&gt;&lt;/b&gt;" style="rounded=0;whiteSpace=wrap;html=1;" vertex="1" parent="1">
          <mxGeometry x="150" y="340" width="120" height="60" as="geometry" />
        </mxCell>
        <mxCell id="kFIQSs36ufZ1v8POqErL-10" style="edgeStyle=orthogonalEdgeStyle;rounded=0;orthogonalLoop=1;jettySize=auto;html=1;entryX=0.5;entryY=1;entryDx=0;entryDy=0;" edge="1" parent="1" source="kFIQSs36ufZ1v8POqErL-7" target="kFIQSs36ufZ1v8POqErL-9">
          <mxGeometry relative="1" as="geometry" />
        </mxCell>
        <mxCell id="kFIQSs36ufZ1v8POqErL-7" value="&lt;b&gt;&lt;i&gt;save logs local&lt;/i&gt;&lt;/b&gt;" style="rounded=0;whiteSpace=wrap;html=1;" vertex="1" parent="1">
          <mxGeometry x="320" y="220" width="120" height="60" as="geometry" />
        </mxCell>
        <mxCell id="kFIQSs36ufZ1v8POqErL-9" value="&lt;b&gt;&lt;i&gt;&lt;font style=&quot;color: rgb(255, 0, 246);&quot;&gt;local stats&lt;/font&gt;&lt;/i&gt;&lt;/b&gt;" style="rounded=0;whiteSpace=wrap;html=1;" vertex="1" parent="1">
          <mxGeometry x="150" y="220" width="120" height="60" as="geometry" />
        </mxCell>
        <mxCell id="kFIQSs36ufZ1v8POqErL-11" value="&lt;i&gt;&lt;b&gt;&lt;font style=&quot;color: rgb(255, 0, 246);&quot;&gt;proxy server&lt;/font&gt;&lt;/b&gt;&lt;/i&gt;" style="rounded=0;whiteSpace=wrap;html=1;" vertex="1" parent="1">
          <mxGeometry x="650" y="280" width="120" height="60" as="geometry" />
        </mxCell>
        <mxCell id="kFIQSs36ufZ1v8POqErL-12" value="&lt;i&gt;&lt;b&gt;&lt;font style=&quot;color: rgb(255, 0, 246);&quot;&gt;database server&lt;/font&gt;&lt;/b&gt;&lt;/i&gt;" style="rounded=0;whiteSpace=wrap;html=1;" vertex="1" parent="1">
          <mxGeometry x="550" y="380" width="120" height="60" as="geometry" />
        </mxCell>
        <mxCell id="kFIQSs36ufZ1v8POqErL-20" style="edgeStyle=orthogonalEdgeStyle;rounded=0;orthogonalLoop=1;jettySize=auto;html=1;entryX=0;entryY=0.5;entryDx=0;entryDy=0;" edge="1" parent="1" source="kFIQSs36ufZ1v8POqErL-19" target="kFIQSs36ufZ1v8POqErL-12">
          <mxGeometry relative="1" as="geometry" />
        </mxCell>
        <mxCell id="kFIQSs36ufZ1v8POqErL-19" value="&lt;i&gt;&lt;b&gt;&lt;font style=&quot;color: rgb(255, 0, 246);&quot;&gt;api server&lt;/font&gt;&lt;/b&gt;&lt;/i&gt;" style="rounded=0;whiteSpace=wrap;html=1;" vertex="1" parent="1">
          <mxGeometry x="430" y="460" width="120" height="60" as="geometry" />
        </mxCell>
        <mxCell id="kFIQSs36ufZ1v8POqErL-27" style="edgeStyle=orthogonalEdgeStyle;rounded=0;orthogonalLoop=1;jettySize=auto;html=1;entryX=0.5;entryY=0;entryDx=0;entryDy=0;" edge="1" parent="1" source="kFIQSs36ufZ1v8POqErL-22" target="kFIQSs36ufZ1v8POqErL-11">
          <mxGeometry relative="1" as="geometry" />
        </mxCell>
        <mxCell id="kFIQSs36ufZ1v8POqErL-22" value="&lt;i&gt;&lt;b&gt;axios post&lt;/b&gt;&lt;/i&gt;" style="rounded=1;whiteSpace=wrap;html=1;" vertex="1" parent="1">
          <mxGeometry x="510" y="220" width="120" height="60" as="geometry" />
        </mxCell>
        <mxCell id="kFIQSs36ufZ1v8POqErL-26" style="edgeStyle=orthogonalEdgeStyle;rounded=0;orthogonalLoop=1;jettySize=auto;html=1;" edge="1" parent="1" source="kFIQSs36ufZ1v8POqErL-24" target="kFIQSs36ufZ1v8POqErL-19">
          <mxGeometry relative="1" as="geometry" />
        </mxCell>
        <mxCell id="kFIQSs36ufZ1v8POqErL-24" value="&lt;b&gt;&lt;i&gt;get user stats&lt;/i&gt;&lt;/b&gt;" style="rounded=1;whiteSpace=wrap;html=1;" vertex="1" parent="1">
          <mxGeometry x="250" y="440" width="120" height="60" as="geometry" />
        </mxCell>
        <mxCell id="kFIQSs36ufZ1v8POqErL-34" style="edgeStyle=orthogonalEdgeStyle;rounded=0;orthogonalLoop=1;jettySize=auto;html=1;entryX=0.5;entryY=1;entryDx=0;entryDy=0;" edge="1" parent="1" source="kFIQSs36ufZ1v8POqErL-29" target="kFIQSs36ufZ1v8POqErL-12">
          <mxGeometry relative="1" as="geometry" />
        </mxCell>
        <mxCell id="kFIQSs36ufZ1v8POqErL-29" value="&lt;i&gt;&lt;b&gt;save data&lt;/b&gt;&lt;/i&gt;" style="rounded=1;whiteSpace=wrap;html=1;" vertex="1" parent="1">
          <mxGeometry x="680" y="440" width="120" height="60" as="geometry" />
        </mxCell>
        <mxCell id="kFIQSs36ufZ1v8POqErL-31" style="edgeStyle=orthogonalEdgeStyle;rounded=0;orthogonalLoop=1;jettySize=auto;html=1;entryX=0.942;entryY=-0.017;entryDx=0;entryDy=0;entryPerimeter=0;" edge="1" parent="1" source="kFIQSs36ufZ1v8POqErL-11" target="kFIQSs36ufZ1v8POqErL-29">
          <mxGeometry relative="1" as="geometry" />
        </mxCell>
      </root>
    </mxGraphModel>
  </diagram>
</mxfile>
